<?xml version="1.0" encoding="utf-8"?>
<!-- Generator: Adobe Illustrator 28.0.0, SVG Export Plug-In . SVG Version: 6.00 Build 0)  -->
<svg version="1.1" id="Layer_1" xmlns="http://www.w3.org/2000/svg" xmlns:xlink="http://www.w3.org/1999/xlink" x="0px" y="0px"
	 viewBox="0 0 800 800" style="enable-background:new 0 0 800 800;" xml:space="preserve">
<style type="text/css">
	.st0{fill:#FFFFFF;}
</style>
<path class="st0" d="M650,750H550c-27.6-0.1-49.9-22.4-50-50V525c-27.6-0.1-49.9-22.4-50-50V325c-0.7-40.7,31.6-74.3,72.3-75
	c0.9,0,1.8,0,2.7,0h150c40.7-0.7,74.3,31.6,75,72.3c0,0.9,0,1.8,0,2.7v150c-0.1,27.6-22.4,49.9-50,50v175
	C699.9,727.6,677.6,749.9,650,750z M525,300c-13-0.8-24.2,9.1-25,22.2c-0.1,0.9-0.1,1.9,0,2.8v150h50v225h100V475h50V325
	c0.8-13-9.1-24.2-22.2-25c-0.9-0.1-1.9-0.1-2.8,0H525z"/>
<path class="st0" d="M600,225c-55.2,0-100-44.8-100-100S544.8,25,600,25s100,44.8,100,100l0,0C699.8,180.2,655.2,224.8,600,225z
	 M600,75c-27.6,0-50,22.4-50,50s22.4,50,50,50s50-22.4,50-50l0,0C649.9,97.4,627.6,75.1,600,75z"/>
<path class="st0" d="M250,504.6V300h-50v204.6c-39.1,13.8-59.5,56.7-45.7,95.7c13.8,39.1,56.7,59.5,95.7,45.7
	c39.1-13.8,59.5-56.7,45.7-95.7C288.2,528.9,271.4,512.1,250,504.6L250,504.6z"/>
<path class="st0" d="M225,750c-96.6,0.1-174.9-78.1-175-174.7c0-45.8,17.9-89.8,50-122.6V175c0-69,56-125,125-125s125,56,125,125
	v277.8c67.6,68.9,66.5,179.6-2.4,247.2C314.8,732.1,270.8,750,225,750z M225,100c-41.4,0-75,33.6-75,75v299.6l-8.3,7.5
	c-51.5,46-55.9,125-9.9,176.5s125,55.9,176.5,9.9s55.9-125,9.9-176.5c-3.1-3.5-6.4-6.8-9.9-9.9l-8.3-7.5V175
	C300,133.6,266.4,100,225,100z"/>
</svg>
